<?xml version="1.0" encoding="UTF-8"?>
<svg width="334.24" height="484.1" version="1.1" viewBox="0 0 334.24 484.1" xmlns="http://www.w3.org/2000/svg">
 <g transform="translate(503.47 75.256)">
  <path d="m-417.34 407.31-1.5278-1.5278v-5.2348l15.206-25.565 9.0892-12.729 0.8475-19.271 2.9456-37.333 0.6125-22.667 0.61249-22.667 4.4011-22.667 0.7093-10.667-4.4233-7.5871-9.8938-5.0796h-7.4572l-9.0761-2.603-5.9099-5.552-16.649 10.761-8.9967 1.6878-6.6353-1.6654-9.3822-8.2377v-2.8479l-3.3356-8.3377-3.3356-8.3377-3.1714-27.031 1.6204-6.0583 1.6204-6.0583 3.8611-5.612 3.8612-5.612 12.057-9.88 0.81734-6.3079 0.81734-6.3079 1.2294-5.9635-15.728 1.6439-10.981-6.1714v-2.1756h-4v3.2l-3.1763-3.1763-0.0785-11.437-0.0785-11.437-6 1.1468v-1.096l3.6253-7.2009 0.81516-6.2359 0.81517-6.2359-7.9862-1.754-8.0531-6.7762-5.8187-10.998 0.1046-18.667 4.3652-8.278 14.392-13.153 26.407-13.519 0.89048-9.8582 0.89047-9.8582 4.7898-21.862 27.453-10.804h3.4492l33.194-9.6064 5.634-1.3012 11.699 5.9241 15.109 10.546 10.554 12.516 8.7161 14.588 2.9982 4.6667 2.9982 4.6667 2.2529 7 2.2529 7h2.3536l14.099-5.7147 19.552-0.28528 6.4485 7.482v8.6857l-7.3333 6.9175-10.667 4.7207-24.831-0.15666 0.91014 2.1753 0.91012 2.1753 1.2308 12-1.6508 6-1.6508 6-0.32409 15.333-0.32411 15.333-0.0906 25.333 1.1412 0.41036 1.1412 0.41037 26.204 19.351 14.64 13.514 30.145-28.979 28.549-22.167 3.4502-2.1026 3.9962 3.3166 2.6973-2.6973 1.9668-17.195 1.9668-17.195 3.9678-13.899 9.2611-7.0638 2.0156 0.77345 2.0156 0.77346 3.7669 8.7488 9.5625 25.971v3.1519l-4.5606 5.0394 3.894 2.463 4 0.0614 3.021 5.2904 3.021 5.2904 0.79986 5.8356 0.79987 5.8356-3.8209 3.6206-3.8209 3.6206-10.667 5.5401-16.212 10.231 0.54833 3.7361 0.54835 3.736-34.179 29.243-12.671 10.199 7.7866 9.8006 10.757 20 3.3646 6.6667 3.3646 6.6667 0.0266 8.7523-3.7183 8.8992-6.2084 4.3485h-6.6508l-11.216-4.2836-1.5889-3.836-1.5889-3.836 0.82878-4.4179 0.8288-4.4178-15.352-18.313-2.7027-3.2335-2.7027-3.2336-42.18 43.552-2.3379 4.3685-3.8496 11.651-4.8386 17.333-4.8386 17.333-13.488 48-9.0474 29.709-3.6472 1.3995-1.9156 19.44-3.8399 7.4255-6.2354 4.0856-4.3387-1.6649-1.2614 3.3178-1.2614 3.3178-19.598 12.215-10.583 3.6752-8.2778 1.6012-1.5278-1.5278zm188.57-187.85 1.9-3.6742v-11.507l-5.3115-9.2917-8.3114-16-10.395-13.909-4.6487 1.7126-16.803 14.642 12.974 13.555 7.8168 10.667 0.01 14.354 4 2.0035 6.6667 2.7807 4 1.1239 6.2-2.7814 1.9-3.6742zm-14.433-0.66629 3-2.1323v-3.4792l-2.3333-0.60976-2.3333-0.60977 6.1771-0.30934-0.42189 3.5228-0.4219 3.5228-6.6667 2.2269zm-135.88-0.91811 2.9227-3.1111h-3.93l0.63032 1.0199 0.63032 1.0199-5.9713 4.1825h2.7952zm1.3183-9.4272 8.1989-8.5383-3.9586-7.5901-0.016-2h2.3776l0.83661 3.3333 0.83661 3.3333h2.0606l11.124-11.334-2.3198-3.7534-11.582 8.7242 10-9.6722v-3.8067l-2.6001-1.607-6.0333 5.5613-6.0337 5.5613v-10.833l2.8443-7.5069 5.6206-6h2.1181l-1.4314 3.7303 2.8485 1.7604-0.0592 3.176-4.9774-6.4753-5.63 11.036v8.2414l8.6667-8.1228 2-0.014v-4h3.4769l8.57-8.842-0.91234-0.91233-0.91233-0.91233h3.0032l6.7746 7.3061v3.2032l1.357 0.83865 1.357 0.83867 10.586-8.3841-1.9832-3.835-1.9832-3.8351v-7.1101l-3 0.8326-3 0.83258-6.6667 1.3366 9.008-3.4858 6.3254-7.3537v-5.1846h2.5093l0.75692 1.2247 0.7569 1.2247 22.774 11.023 12.536-10.538 6.6667-7.2187-16-14.498-25.683-18.445-3.1891-0.77248-4.8588 15.395-7.2012 9.4412-8.8374 4.2142 1.3993 3.6465-4.6818-4.6818-4.6819-4.6801h-9.5923l-10.878 9.8277-1.8636-3.0154-12.828-2.8749-9.7711-5.0275-12.914-12.91-6.3397-12.421-2.2249-8.0026-2.2249-8.0026-5.6295-1.2305-4.2594-1.8053-5.6627 20.796-2.5717 14.667-0.8788 8-0.87881 8-16.688 17.333-6.2156 12 0.23517 9.042 0.23518 9.042 1.8875 9.0526 1.8875 9.0526 4.0564 8.9462 4.0564 8.9462 9.3779 3.9183h7.1847l12.234-7.077 22.667-17.381 33.333-34.01 15.973-7.0014 6.0269-5.662v2.9028l-12.667 7.7048-8.5926 3.4835-20.022 20.957 0.78347 2.0417 0.78346 2.0417h-5.7219l-11.23 10.751 15.554-6.7024 10.78-8.5378 3.5614-8.1778 0.01 4-3.2388 5.7784-10.667 8.519-13.829 6.3693-4.8376 0.0718-8.9858 7.4534 3.5975 5.7606 7.7862 2.7143 8.2687 0.0698 10.667 5.0475 2.9106 0.216 8.1989-8.5383zm-70.895-28.207 0.91497-2.3844-5.1296 1.8028 5.1763-4.0066h3.4082l10.683-5.5683-5.2489-10.289-2.3427-1.3643-2.3427-1.3643 4.5159-0.081 4.666 7.8989 1.7424-1.446 1.7424-1.4462v2.8358l-2.7751 1.7151 0.75494 2.3786 0.75493 2.3786-8.59 3.5581-8.8451 7.7661zm87.785-19.255 2.6667-1.1459 5.3333 0.0784-6.6667 2.135-4 0.0784 2.6667-1.1459zm-47.333-4.5728v-0.66667l5.3333-2.8543v1.3333l-5.3333 2.8543zm10.025-7.4272 2.5869-3.3333 14.441-13.333-1.4819 2.8298-1.482 2.8298-16.65 14.34zm61.975-6.6667v-1.3333h2.6667v2.6667h-2.6667zm5.4386-11.444 0.1052-2.5556 1.4006 3.5-0.80554 0.80556-0.80556 0.80555 0.1052-2.5556zm-36.946 72.897-0.85738-0.78594-0.598 1.675-0.59802 1.675-2.4389-1.5073v4.5707l5.3497-4.8414zm2.841-2.7859 0.82404-1.3333h-2.6667l-0.82404 1.3333-0.82404 1.3333h2.6667zm4.3333-3.4444-0.77777-0.77779 2.2222-2.344 2.2222-2.344 2.412 1.3223-0.97626-1.5796-0.97625-1.5796-6.2469 6.0125 0.63906 1.034 0.63906 1.034h1.6204zm13.325-19.083 5.6581-4.6897-2.4441-2.4441-7.5388 5.224-3.3333 1.9279v-1.4572l10.723-6.7694-2.8172-5.264h-2.8558l-10.384 8.2241v3.8596l1.9923 0.76453 1.9923 0.76454-0.66334 1.0733-0.66333 1.0733 0.81071 2.1126 0.8107 2.1127 1.527-0.91122 1.527-0.91121zm2.4686 3.6719 2.54-2.8555-6 3.6859v2.0252h0.92002zm12.444-10.942 0.0963-1.1313-4.5704 3.798-4.5704 3.798-0.1926 2.2626 4.5704-3.798 4.5704-3.798zm4.2664-3.202 1.8299-2.3333-4.6667 3.6599v1.0068h1.0068zm13.83-8.9095 8-7.1782-19.925-9.579h-3.085l-1.4719 3.6667-1.4719 3.6667 1.1988 5.1289 1.1988 5.1289 6.0209 6.4089 1.5352-0.0648 8-7.1781zm-23.711-60.109 2.882-2.0186-0.29757-3.648-0.29759-3.648-23.497 0.25467-2.3712 3.7454-0.0408 1.7381 8.6667 5.5503 6.0366 0.0224 6.0367 0.0225 2.882-2.0186zm-8.622-4.2338 2.3333-0.60976 4.6667 1.2195h-9.3333zm-9.9167-1.325 1.75-0.7003 0.80556 0.80555 0.80554 0.80556-5.1111-0.2104 1.75-0.70029zm-10.431-13.738 3.9597-4.9995 12.721-5.4296 13.823 2.2223 5.7391 3.0714 0.34033-0.44136 0.34035-0.44136 1.6867-6.2188 1.6867-6.2188-3.166-9.5932 0.44182-6.0792 0.44181-6.0792-9.0187-3.8302 0.8938 5.0096 0.89382 5.0096 0.78326 6.8177 0.78327 6.8176-2.6169 1.6173 0.58072-3.0378 0.5807-3.0378-4.2133-20.398v-6.9365l2.3891 1.4766 6.8202-3.5384-4.384-4.384 0.72225-0.72226 0.72227-0.72226 7.6083 3.9472 0.97327-0.97326-1.6457-5.493-1.6457-5.493-5.56-1.12-25.333-1.4865-21.333 2.5081-17.717 3.9596-10.619 5.4175-1.4475-1.4475-2.5317 4.8951-0.89799 4.9755-0.89798 4.9755 5.3986 22.731 5.7644 11.318 6.742 8.8549 13.54 6.8753 6.6178 1.7819 6.075-1.1613zm15.52-18.406-0.65183-1.0547 9.813 0.92975 2 0.43513 2 0.43515-12.509 0.30933zm-32.422-24.721 0.91631-2.4424v-2.5759l7.0561-6.5393h2.8706l-5.9713 4.1825 1.79 2.8962-2.8944-1.7889-1.5563 2.5182 4.7054 1.3488 10.163-1.8235-2.9486-3.1591-2.9486-3.1591 10.998 1.0488-1.9305-1.7403-16.268-1.7442-3.3921 4.0873h-2.9462l7.3324-7.3333 18.357-0.40757 5.5835-1.7721v2.7612l-6.7918 3.5586 5.4585 4.9399v3.5182l-8.5009 4.396-15.892-1.6611-4.1061 3.3336zm21.52-2.4383 3.3961-1.5474v-2.5652l-3.4137 2.8331-13.253 2.5285 9.8745 0.29824zm-64.604 40.13v-4.0838l-4.6667 0.47471-3.3333-0.30708v-3.4903l4.1471-5.1764-3.0608 6.2863 1.1347 1.1347 1.1347 1.1347 2.9883-1.889 0.94033-6.9068 0.94034-6.9068-10.705-7.0845-4.6316 0.898-2.5085 7.5292 2.1645 5.6676 2.1645 5.6676 4.0946 5.5678 4.0946 5.5678h5.1026zm-13.152-18.916-0.18158-3.6667h3.8095l4.1905 4.1905v3.0695l-4.1512-5.9267h-2.33l-0.57783 3-0.57782 3zm111.49-19.252-2.3333-0.60977v-5.4488l6 1.5117-5.1764-3.8674h-4.2903l-3.2 3.2v3.4667h5.176l0.82404 1.3333 0.82404 1.3333 4.5093-0.30934z" stroke-width="1.3333"/>
 </g>
</svg>
